<svg width="847" height="410" viewBox="0 0 847 410" fill="none" xmlns="http://www.w3.org/2000/svg">
<line x1="94" y1="31.5" x2="724" y2="31.4999" stroke="#242355"/>
<line x1="25" y1="226.5" x2="772" y2="226.5" stroke="#242355"/>
<line x1="56" y1="80.5" x2="799" y2="80.4999" stroke="#242355"/>
<line x1="81" y1="275.5" x2="814" y2="275.5" stroke="#242355"/>
<line x1="38" y1="129.5" x2="847" y2="129.5" stroke="#242355"/>
<line x1="99" y1="324.5" x2="673" y2="324.5" stroke="#242355"/>
<line x1="-4.37114e-08" y1="178.5" x2="831" y2="178.5" stroke="#242355"/>
<line x1="244" y1="373.5" x2="703" y2="373.5" stroke="#242355"/>
<line x1="67.5" y1="306" x2="67.5" y2="58" stroke="#242355"/>
<line x1="458.5" y1="388" x2="458.5" y2="-2.18557e-08" stroke="#242355"/>
<path d="M262.5 378.5L262.5 18" stroke="#242355"/>
<line x1="653.5" y1="355" x2="653.5" y2="32" stroke="#242355"/>
<line x1="116.5" y1="309" x2="116.5" y2="32" stroke="#242355"/>
<line x1="507.5" y1="395" x2="507.5" y2="11" stroke="#242355"/>
<line x1="311.5" y1="363" x2="311.5" y2="32" stroke="#242355"/>
<line x1="702.5" y1="306" x2="702.5" y2="32" stroke="#242355"/>
<line x1="165.5" y1="388" x2="165.5" y2="18" stroke="#242355"/>
<line x1="556.5" y1="410" x2="556.5" y2="32" stroke="#242355"/>
<line x1="360.5" y1="379" x2="360.5" y2="18" stroke="#242355"/>
<line x1="751.5" y1="250" x2="751.5" y2="24" stroke="#242355"/>
<line x1="214.5" y1="366" x2="214.5" y2="24" stroke="#242355"/>
<line x1="605.5" y1="388" x2="605.5" y2="32" stroke="#242355"/>
<line x1="409.5" y1="388" x2="409.5" y2="24" stroke="#242355"/>
<line x1="800.49" y1="374.062" x2="800.49" y2="32.0002" stroke="#242355"/>
</svg>
