<svg width="1844" height="439" viewBox="0 0 1844 439" fill="none" xmlns="http://www.w3.org/2000/svg">
<g opacity="0.71">
<path d="M592.559 326.813L549.228 331.627L600.027 273.826L592.559 326.813Z" stroke="#3A22D0" stroke-opacity="0.32"/>
<path d="M673.946 65.9988L660.751 11.7144L696.04 31.7007L673.946 65.9988Z" stroke="#7035AB" stroke-opacity="0.26"/>
<path d="M1325.41 332.572L1300.82 280.013L1379.54 350.441L1325.41 332.572Z" stroke="#7035AB" stroke-opacity="0.2"/>
<path d="M235.722 166.136L251.437 168.038C261.648 154.908 288.313 127.257 300.368 115.074L329.576 101.621C328.029 105.388 322.576 117.214 316.659 131.42C281.713 168.595 277.909 173.594 266.872 183.526L269.314 197.105L261.635 205.825C259.682 201.722 257.907 197.442 255.776 193.161C253.458 193.691 241.239 181.323 241.975 178.875L228 174.095L235.722 166.136Z" stroke="#7035AB" stroke-opacity="0.29"/>
<path d="M1644.63 371.166L1650.92 361.466C1645.58 350.556 1636 324.194 1631.87 312.378L1632.41 288.901C1634.39 291.124 1640.4 298.495 1647.82 306.933C1661 341.783 1663.06 345.881 1666.03 356.308L1675.73 359.061L1678.98 366.895C1675.67 366.861 1672.29 366.653 1668.8 366.678C1668.4 368.369 1656.37 372.417 1655 371.15L1647.38 378.785L1644.63 371.166Z" stroke="#DB578E" stroke-opacity="0.28"/>
<path d="M25.4717 381.956L17.7726 327.268L89.6748 336.034L25.4717 381.956Z" stroke="#B530A7" stroke-opacity="0.2"/>
<path d="M701.296 235.08L698.792 197.154L738.947 190.591L741.515 229.491L701.296 235.08Z" stroke="#3B8B9C" stroke-opacity="0.25"/>
<path d="M881.462 308.781L903.859 264.4L911.459 292.435L887.2 332.707L881.462 308.781Z" stroke="#D035DD" stroke-opacity="0.25"/>
<path d="M827.853 84.3999L877.27 93.5164L847.168 119.691L802.032 105.701L827.853 84.3999Z" stroke="#7035AB" stroke-opacity="0.25"/>
<path d="M1146.27 344.342L1128.21 313.726L1165.33 296.141L1185.33 325.299L1146.27 344.342Z" stroke="#1C4584" stroke-opacity="0.25"/>
<path d="M1503.54 358.336L1506 329.401L1528.85 308.225L1526.96 338.268L1503.54 358.336Z" stroke="#7035AB" stroke-opacity="0.25"/>
<path d="M392.471 250.473C384.853 243.557 384.057 232.082 390.626 224.847C397.194 217.611 408.692 217.296 416.311 224.212C423.929 231.128 424.725 242.603 418.156 249.838C411.588 257.074 400.09 257.389 392.471 250.473Z" stroke="#D5965C" stroke-opacity="0.28"/>
<path d="M1810.81 206.328C1804.29 200.402 1803.51 190.714 1808.98 184.693C1814.44 178.671 1824.16 178.508 1830.69 184.434C1837.22 190.359 1837.99 200.047 1832.53 206.069C1827.06 212.091 1817.34 212.254 1810.81 206.328Z" stroke="#FAFF1D" stroke-opacity="0.15"/>
<path d="M1068.69 293.577C1065.34 300.992 1057.42 304.524 1051.07 301.654C1044.72 298.785 1042.14 290.509 1045.49 283.094C1048.84 275.679 1056.75 272.146 1063.1 275.016C1069.46 277.886 1072.04 286.162 1068.69 293.577Z" stroke="#43A932" stroke-opacity="0.15"/>
<path d="M1289.38 423.932L1299.36 419.681L1284.89 407.225L1259.9 386.556L1261.87 398.566L1289.38 423.932Z" stroke="#284198" stroke-opacity="0.1"/>
<path d="M1827.81 404.856L1825.89 399.009L1818.16 406.597L1805.29 419.738L1812.17 419.196L1827.81 404.856Z" stroke="#284198" stroke-opacity="0.2"/>
<path d="M1760.05 378.942L1747.7 347.245L1747.7 383.468L1760.05 378.942Z" stroke="#284198" stroke-opacity="0.2"/>
<path d="M1791.77 310.29L1780 278.539L1801.29 306.804L1791.77 310.29Z" stroke="#284198" stroke-opacity="0.2"/>
<path d="M271.041 388.862C245.126 384.329 240.855 386.534 239.872 389.665C238.512 394 258.974 405.712 279.96 412.296C296.748 417.564 310.956 418.671 315.96 418.565L315.054 421.456L329.127 425.871L334.265 409.493L320.192 405.078L319.21 408.209C315.272 404.857 304.549 399.905 299.68 397.848L299.347 391.13L274.411 383.306C273.837 384.272 272.359 386.736 271.041 388.862Z" stroke="#3C6C87" stroke-opacity="0.25"/>
<g opacity="0.12">
<path d="M177.795 277.993C177.969 277.396 178.495 276.86 179.45 276.441C180.401 276.024 181.712 275.757 183.308 275.666C186.495 275.484 190.705 276.012 195.174 277.309C199.643 278.605 203.483 280.413 206.078 282.272C207.377 283.203 208.341 284.13 208.922 284.992C209.504 285.856 209.662 286.591 209.488 287.188C209.315 287.785 208.789 288.322 207.834 288.74C206.883 289.157 205.572 289.425 203.976 289.516C200.789 289.697 196.578 289.169 192.109 287.873C187.641 286.576 183.801 284.769 181.206 282.91C179.907 281.979 178.943 281.051 178.362 280.19C177.779 279.325 177.622 278.59 177.795 277.993Z" stroke="#EFBFBF"/>
<path d="M172.734 272.11L177.432 277.889L170.371 280.257L172.734 272.11Z" stroke="#EFBFBF"/>
</g>
<g opacity="0.12">
<path d="M1243.94 205.563C1244.1 206.358 1243.81 207.277 1243.01 208.295C1242.2 209.309 1240.92 210.361 1239.23 211.38C1235.85 213.416 1230.96 215.264 1225.35 216.423C1219.74 217.582 1214.51 217.824 1210.61 217.291C1208.65 217.024 1207.06 216.567 1205.92 215.956C1204.77 215.342 1204.15 214.611 1203.98 213.816C1203.82 213.021 1204.1 212.101 1204.91 211.084C1205.72 210.07 1207 209.018 1208.69 207.999C1212.06 205.963 1216.96 204.115 1222.57 202.956C1228.18 201.796 1233.4 201.555 1237.31 202.088C1239.26 202.354 1240.86 202.811 1242 203.423C1243.15 204.037 1243.77 204.768 1243.94 205.563Z" stroke="#BFE6EF"/>
<path d="M1252.86 209.267L1244.08 205.533L1250.66 198.625L1252.86 209.267Z" stroke="#BFE6EF"/>
</g>
</g>
</svg>
